<svg width="36" height="36" viewBox="0 0 36 36" fill="none" xmlns="http://www.w3.org/2000/svg">
<mask id="mask0_2164_900" style="mask-type:alpha" maskUnits="userSpaceOnUse" x="0" y="0" width="36" height="36">
<rect width="36" height="36" fill="#D9D9D9"/>
</mask>
<g mask="url(#mask0_2164_900)">
<path d="M9 21H21V18H9V21ZM9 16.5H27V13.5H9V16.5ZM9 12H27V9H9V12ZM3 33V6C3 5.175 3.29375 4.46875 3.88125 3.88125C4.46875 3.29375 5.175 3 6 3H30C30.825 3 31.5312 3.29375 32.1187 3.88125C32.7062 4.46875 33 5.175 33 6V24C33 24.825 32.7062 25.5312 32.1187 26.1187C31.5312 26.7062 30.825 27 30 27H9L3 33ZM7.725 24H30V6H6V25.6875L7.725 24Z" fill="#B4A5F5"/>
</g>
</svg>
