<svg width="48" height="48" viewBox="0 0 48 48" fill="none" xmlns="http://www.w3.org/2000/svg">
<mask id="mask0_2164_881" style="mask-type:alpha" maskUnits="userSpaceOnUse" x="0" y="0" width="48" height="48">
<rect width="48" height="48" fill="#D9D9D9"/>
</mask>
<g mask="url(#mask0_2164_881)">
<path d="M18 30H22V18H18V30ZM26 30H30V18H26V30ZM24 44C21.2333 44 18.6333 43.475 16.2 42.425C13.7667 41.375 11.65 39.95 9.85 38.15C8.05 36.35 6.625 34.2333 5.575 31.8C4.525 29.3667 4 26.7667 4 24C4 22.5667 4.15 21.1583 4.45 19.775C4.75 18.3917 5.18333 17.05 5.75 15.75L8.85 18.85C8.58333 19.7167 8.375 20.575 8.225 21.425C8.075 22.275 8 23.1333 8 24C8 28.4667 9.55 32.25 12.65 35.35C15.75 38.45 19.5333 40 24 40C28.4667 40 32.25 38.45 35.35 35.35C38.45 32.25 40 28.4667 40 24C40 19.5333 38.45 15.75 35.35 12.65C32.25 9.55 28.4667 8 24 8C23.1 8 22.225 8.075 21.375 8.225C20.525 8.375 19.6833 8.58333 18.85 8.85L15.8 5.8C17.1333 5.2 18.4667 4.75 19.8 4.45C21.1333 4.15 22.5333 4 24 4C26.7667 4 29.3667 4.525 31.8 5.575C34.2333 6.625 36.35 8.05 38.15 9.85C39.95 11.65 41.375 13.7667 42.425 16.2C43.475 18.6333 44 21.2333 44 24C44 26.7667 43.475 29.3667 42.425 31.8C41.375 34.2333 39.95 36.35 38.15 38.15C36.35 39.95 34.2333 41.375 31.8 42.425C29.3667 43.475 26.7667 44 24 44ZM11 14C10.1667 14 9.45833 13.7083 8.875 13.125C8.29167 12.5417 8 11.8333 8 11C8 10.1667 8.29167 9.45833 8.875 8.875C9.45833 8.29167 10.1667 8 11 8C11.8333 8 12.5417 8.29167 13.125 8.875C13.7083 9.45833 14 10.1667 14 11C14 11.8333 13.7083 12.5417 13.125 13.125C12.5417 13.7083 11.8333 14 11 14Z" fill="white" fill-opacity="0.8"/>
</g>
</svg>
