<svg width="40" height="40" viewBox="0 0 40 40" fill="none" xmlns="http://www.w3.org/2000/svg">
<path d="M4.45 32.6501C3.05 30.9168 1.95833 28.9751 1.175 26.8251C0.391667 24.6751 0 22.4001 0 20.0001C0 14.7668 1.725 10.2668 5.175 6.5001C8.625 2.73343 12.9 0.600098 18 0.100098V4.1001C14 4.56676 10.6667 6.3001 8 9.3001C5.33333 12.3001 4 15.8668 4 20.0001C4 21.8668 4.28333 23.6251 4.85 25.2751C5.41667 26.9251 6.23333 28.4334 7.3 29.8001L4.45 32.6501ZM20 40.0001C17.5667 40.0001 15.2667 39.6001 13.1 38.8001C10.9333 38.0001 8.98333 36.8834 7.25 35.4501L10.05 32.6001C11.4167 33.6668 12.9417 34.5001 14.625 35.1001C16.3083 35.7001 18.1 36.0001 20 36.0001C21.9 36.0001 23.6917 35.7001 25.375 35.1001C27.0583 34.5001 28.5833 33.6668 29.95 32.6001L32.75 35.4501C31.0167 36.8834 29.0667 38.0001 26.9 38.8001C24.7333 39.6001 22.4333 40.0001 20 40.0001ZM35.55 32.6501L32.7 29.8001C33.7667 28.4334 34.5833 26.9251 35.15 25.2751C35.7167 23.6251 36 21.8668 36 20.0001C36 15.8668 34.6667 12.3001 32 9.3001C29.3333 6.3001 26 4.56676 22 4.1001V0.100098C27.1 0.600098 31.375 2.73343 34.825 6.5001C38.275 10.2668 40 14.7668 40 20.0001C40 22.4001 39.6083 24.6751 38.825 26.8251C38.0417 28.9751 36.95 30.9168 35.55 32.6501ZM15 29.0001V11.0001L29 20.0001L15 29.0001Z" fill="#6DC590"/>
</svg>
